<svg width="394" height="93.1894443675017" viewBox="0 0 320 75.68685836954452" class="css-1j8o68f"><defs id="SvgjsDefs1100"></defs><g id="SvgjsG1101" featurekey="odWo6G-0" transform="matrix(0.0017312120215362775,0,0,0.0017312120215362775,-1.9372262520990946,-14.095528279348372)" fill="#e4f9f5"><defs xmlns="http://www.w3.org/2000/svg"></defs><g xmlns="http://www.w3.org/2000/svg"><path class="fil0" d="M28233 16712c-655,-6 -1053,23 -1440,216 -424,211 -907,634 -1721,1411 -540,516 -1178,930 -1884,1213 -682,273 -1424,424 -2198,424 -1634,0 -3113,-662 -4184,-1733 -1071,-1071 -1733,-2550 -1733,-4184 0,-1634 662,-3113 1733,-4184 1071,-1071 2550,-1733 4184,-1733 774,0 1516,150 2198,424 706,283 1344,697 1884,1212 810,773 1293,1197 1713,1408 382,192 776,224 1418,219 157,-1 346,-3 532,-4 946,-8 1881,-16 2834,1 760,13 1203,1 1608,-185 437,-200 925,-625 1778,-1438 540,-516 1178,-930 1884,-1212 682,-273 1424,-424 2198,-424 1634,0 3113,662 4184,1733 1071,1071 1733,2550 1733,4184 0,1634 -662,3113 -1733,4184 -1071,1071 -2550,1733 -4184,1733 -774,0 -1516,-150 -2198,-424 -706,-283 -1344,-697 -1884,-1213 -781,-746 -1259,-1167 -1671,-1385 -368,-196 -730,-240 -1300,-242 -537,-2 -1072,0 -1607,2 -713,3 -1427,5 -2144,-1zm0 31885c-655,-6 -1053,23 -1440,216 -424,211 -907,634 -1721,1411 -540,516 -1178,930 -1884,1212 -682,273 -1424,424 -2198,424 -1634,0 -3113,-662 -4184,-1733 -1071,-1071 -1733,-2550 -1733,-4184 0,-1634 662,-3113 1733,-4184 1071,-1071 2550,-1733 4184,-1733 774,0 1516,150 2198,424 706,283 1344,697 1884,1212 810,773 1293,1197 1713,1408 382,192 776,224 1418,219 157,-1 346,-3 532,-4 946,-8 1881,-16 2834,1 760,13 1203,1 1608,-185 437,-200 925,-625 1778,-1438 540,-516 1178,-930 1884,-1212 682,-273 1424,-424 2198,-424 1634,0 3113,662 4184,1733 1071,1071 1733,2550 1733,4184 0,1634 -662,3113 -1733,4184 -1071,1071 -2550,1733 -4184,1733 -774,0 -1516,-150 -2198,-424 -706,-283 -1344,-697 -1884,-1212 -781,-746 -1259,-1167 -1671,-1385 -368,-196 -730,-240 -1300,-242 -537,-2 -1072,0 -1607,2 -713,3 -1427,5 -2144,-1zm-1947 -811c592,-294 1118,-340 1956,-332 714,6 1425,4 2135,1 535,-2 1071,-4 1607,-2 762,3 1265,71 1838,376 530,282 1068,751 1922,1565 437,417 952,751 1521,979 545,218 1143,338 1772,338 1317,0 2509,-534 3372,-1397 863,-863 1397,-2055 1397,-3372 0,-1317 -534,-2509 -1397,-3372 -863,-863 -2055,-1397 -3372,-1397 -629,0 -1227,120 -1772,338 -569,228 -1084,563 -1521,979 -944,901 -1505,1380 -2092,1649 -618,283 -1172,304 -2101,288 -945,-16 -1870,-9 -2807,-1 -169,1 -337,3 -537,4 -822,6 -1344,-43 -1934,-340 -553,-278 -1102,-752 -1991,-1600 -437,-417 -952,-751 -1521,-979 -545,-218 -1143,-338 -1772,-338 -1317,0 -2509,534 -3372,1397 -863,863 -1397,2055 -1397,3372 0,1317 534,2509 1397,3372 863,863 2055,1397 3372,1397 629,0 1227,-120 1772,-338 569,-228 1084,-563 1521,-979 897,-856 1448,-1332 2004,-1608zm16777 -16121c995,-9 1618,44 2313,390 659,327 1318,897 2396,1926 540,515 1176,928 1879,1210 674,270 1413,419 2190,419 1627,0 3101,-660 4167,-1726 1066,-1066 1726,-2540 1726,-4167 0,-1627 -660,-3101 -1726,-4167 -1066,-1066 -2540,-1726 -4167,-1726 -777,0 -1516,149 -2190,419 -703,282 -1340,695 -1879,1210 -1068,1019 -1725,1587 -2381,1917 -693,348 -1310,406 -2287,399 -239,-2 -443,-3 -649,-5 -1136,-9 -2257,-19 -3401,1 -1069,19 -1720,-3 -2416,-302 -671,-288 -1310,-813 -2352,-1797 -18,-17 -35,-35 -50,-53 -512,-528 -1126,-961 -1811,-1270 -673,-303 -1411,-484 -2185,-514l-2 0 0 0 -72 -3 -33 -1c-26,-1 -45,-1 -60,-1 -49,0 -98,0 -147,0 -15,0 -34,1 -58,1l-71 2c-14,0 -9,0 -32,1l0 0 0 0c-7,0 -13,0 -20,1 -769,32 -1503,212 -2172,514 -698,315 -1322,759 -1841,1300 -7,7 -14,14 -21,21l1 1c-1041,984 -1680,1509 -2352,1797 -696,299 -1347,321 -2416,302 -1145,-20 -2266,-10 -3401,-1 -206,2 -410,3 -649,5 -977,7 -1594,-51 -2287,-399 -656,-330 -1313,-898 -2381,-1917 -540,-515 -1176,-928 -1879,-1210 -674,-270 -1413,-419 -2190,-419 -1627,0 -3101,660 -4167,1726 -1066,1066 -1726,2540 -1726,4167 0,1627 660,3101 1726,4167 1066,1066 2540,1726 4167,1726 777,0 1516,-149 2190,-419 703,-282 1340,-695 1879,-1210 1078,-1028 1737,-1598 2396,-1926 695,-346 1319,-399 2313,-390 865,8 1726,5 2586,2 648,-2 1295,-5 1945,-2 867,3 1450,77 2092,401 605,305 1215,817 2153,1704 18,17 35,35 50,53 512,528 1126,961 1811,1270 673,303 1410,484 2185,514l2 0 0 0c35,1 70,3 105,4 26,1 45,1 60,1 49,0 98,0 147,0 15,0 35,-1 60,-1l66 -2 0 0c15,-1 30,-1 45,-2 773,-31 1509,-211 2181,-514 699,-315 1323,-759 1841,-1300 7,-7 14,-14 21,-21l-1 -1c938,-887 1548,-1399 2153,-1704 642,-324 1225,-398 2092,-401 649,-2 1297,0 1945,2 860,3 1721,6 2586,-2zm1806 1417c-490,-244 -986,-281 -1797,-273 -868,8 -1732,5 -2595,2 -648,-2 -1295,-5 -1945,-2 -683,2 -1129,54 -1577,280 -485,244 -1026,704 -1884,1515l-1 -1c-619,642 -1356,1166 -2174,1534 -798,360 -1677,575 -2603,613l-30 1 0 0 -23 1 0 0 -42 1 -42 1c-18,0 -41,1 -69,1 -59,0 -115,0 -174,0 -28,0 -52,-1 -69,-1l-42 -1c-29,-1 -57,-2 -85,-3 -930,-37 -1813,-252 -2613,-613 -813,-367 -1546,-886 -2163,-1523l-12 -11c-858,-811 -1399,-1271 -1884,-1515 -448,-225 -893,-277 -1577,-280 -649,-2 -1297,0 -1945,2 -863,3 -1727,6 -2595,-2 -812,-7 -1307,30 -1797,273 -527,262 -1119,780 -2113,1728 -643,614 -1403,1107 -2242,1443 -811,325 -1694,504 -2616,504 -1944,0 -3705,-788 -4979,-2062 -1274,-1274 -2062,-3034 -2062,-4979 0,-1944 788,-3705 2062,-4979 1274,-1274 3034,-2062 4979,-2062 922,0 1804,179 2616,504 840,336 1599,830 2242,1443 989,944 1581,1462 2103,1724 485,244 974,284 1771,278 194,-1 420,-3 644,-5 1145,-10 2275,-19 3428,1 905,16 1447,1 1945,-213 523,-225 1081,-690 2020,-1578l1 1c619,-642 1356,-1166 2174,-1534 795,-358 1670,-573 2593,-612l16 -1 0 0c30,-2 60,-2 90,-3l42 -1c18,0 42,-1 69,-1 18,0 40,0 64,0 36,-1 74,0 110,0 28,0 52,1 69,1l42 1c28,1 57,2 85,3 930,37 1813,252 2613,613 813,367 1546,886 2163,1523l12 11c939,888 1497,1353 2020,1578 498,214 1040,228 1945,213 1153,-20 2283,-11 3428,-1 224,2 451,4 644,5 797,6 1286,-34 1771,-278 522,-262 1114,-780 2103,-1724 643,-614 1403,-1107 2242,-1443 811,-325 1694,-504 2616,-504 1944,0 3705,788 4979,2062 1274,1274 2062,3034 2062,4979 0,1944 -788,3705 -2062,4979 -1274,1274 -3034,2062 -4979,2062 -922,0 -1804,-179 -2616,-504 -840,-336 -1599,-830 -2242,-1443 -994,-949 -1587,-1467 -2113,-1728zm-18583 -17180c592,-294 1118,-340 1956,-332 714,6 1425,4 2135,1 535,-2 1071,-4 1607,-2 762,3 1265,71 1838,376 530,282 1068,751 1922,1565 437,417 952,751 1521,979 545,218 1143,338 1772,338 1317,0 2509,-534 3372,-1397 863,-863 1397,-2055 1397,-3372 0,-1317 -534,-2509 -1397,-3372 -863,-863 -2055,-1397 -3372,-1397 -629,0 -1227,120 -1772,338 -569,228 -1084,563 -1521,979 -944,900 -1505,1380 -2092,1649 -618,283 -1172,304 -2101,288 -945,-16 -1870,-9 -2807,-1 -169,1 -337,3 -537,4 -822,6 -1344,-43 -1934,-340 -553,-278 -1102,-752 -1991,-1600 -437,-417 -952,-751 -1521,-979 -545,-218 -1143,-338 -1772,-338 -1317,0 -2509,534 -3372,1397 -863,863 -1397,2055 -1397,3372 0,1317 534,2509 1397,3372 863,863 2055,1397 3372,1397 629,0 1227,-120 1772,-338 569,-228 1084,-563 1521,-979 897,-856 1448,-1332 2004,-1608z" style="fill: #e4f9f5; fill-rule: nonzero;"></path></g></g><g id="SvgjsG1102" featurekey="VGK2BT-0" transform="matrix(2.5130882021637118,0,0,2.5130882021637118,118.0431521512489,-1.1851929077810226)" fill="#e4f9f5"><path d="M0.81339 18.7798 l0.5761 -0.91508 c0.11864 -0.18661 0.22034 -0.23746 0.38983 -0.15271 c0.016949 0.033898 1.0508 0.64407 2.1864 0.64407 c0.98305 0 1.322 -0.38983 1.322 -0.77966 c0 -0.57627 -0.62712 -0.77949 -1.7627 -1.0676 c-1.6102 -0.42373 -2.678 -1.2542 -2.678 -2.5424 c0 -1.2712 1.0847 -2.4576 3.1186 -2.4576 c1.2373 0 2.0847 0.42373 2.7627 0.81356 c0.16949 0.10169 0.25424 0.25424 0.15254 0.38983 l-0.62712 0.9661 c-0.084746 0.13559 -0.22034 0.18644 -0.37288 0.13559 c-0.44068 -0.22017 -1.1525 -0.54237 -1.9153 -0.54237 c-0.94915 0 -1.2034 0.47458 -1.2034 0.76271 c0 0.49153 0.71186 0.72881 1.5763 0.96593 c1.5086 0.40678 3.0171 1.1356 3.0171 2.6102 c0 1.4237 -1.3558 2.5083 -3.3898 2.5083 c-1.3898 0 -2.6441 -0.6778 -3.0678 -1.0168 c-0.11864 -0.067797 -0.15254 -0.23729 -0.084746 -0.32203 z M16.7288 11.6102 c0.15254 0 0.25424 0.11881 0.25424 0.28831 l0 7.8305 c0 0.15238 -0.10169 0.27102 -0.23729 0.27102 l-1.0508 0 c-0.28814 0 -0.52542 -0.42356 -0.54237 -0.71169 l0 -0.18644 c-0.66102 0.50847 -1.5593 0.99983 -2.7119 0.99983 c-1.7458 0 -3.4915 -1.1015 -3.4915 -3.2202 l0 -3.7458 c0 -0.45763 -0.033898 -0.81356 -0.084746 -1.1695 c-0.033898 -0.18644 0.016949 -0.35593 0.16949 -0.35593 l1.1017 0 c0.42373 0 0.66102 0.28814 0.66102 0.67797 l0 4.4237 c0 1.1186 0.76271 1.7458 1.8983 1.7458 c0.9661 0 1.7627 -0.54237 2.4576 -1.2373 l0 -5.322 c0 -0.16949 0.10169 -0.28831 0.25407 -0.28831 l1.3222 0 z M23.321901694915255 11.5256 c1.9831 0 3.8812 1.6273 3.8812 4.1697 c0 2.4746 -1.5424 4.4064 -3.9322 4.4064 c-0.91525 0 -1.6949 -0.30475 -2.3049 -0.72847 c-0.084746 0.40678 -0.54237 0.62695 -0.88136 0.62695 l-0.67797 0 c-0.15254 0 -0.27119 -0.11864 -0.27119 -0.27102 l0 -11.831 c0 -0.52542 -0.084746 -0.79661 -0.13559 -1.1017 c-0.033732 -0.18661 0.017115 -0.3561 0.18661 -0.3561 l1.1525 0 c0.38983 0 0.64407 0.25424 0.64407 0.61017 l0 5.1356 c0.57627 -0.35593 1.3219 -0.66102 2.3388 -0.66102 z M22.982701694915253 18.3903 c1.3729 0 2.4068 -1.0169 2.4068 -2.6949 c0 -1.7288 -1.2712 -2.4576 -2.339 -2.4576 c-0.76271 0 -1.4576 0.27119 -2.0678 0.66102 l0 3.9322 c0.54237 0.30508 1.1864 0.55932 2 0.55932 z M28.864237457627116 18.7798 l0.5761 -0.91508 c0.11864 -0.18661 0.22034 -0.23746 0.38983 -0.15271 c0.016949 0.033898 1.0508 0.64407 2.1864 0.64407 c0.98305 0 1.322 -0.38983 1.322 -0.77966 c0 -0.57627 -0.62712 -0.77949 -1.7627 -1.0676 c-1.6102 -0.42373 -2.678 -1.2542 -2.678 -2.5424 c0 -1.2712 1.0847 -2.4576 3.1186 -2.4576 c1.2373 0 2.0847 0.42373 2.7627 0.81356 c0.16949 0.10169 0.25424 0.25424 0.15254 0.38983 l-0.62712 0.9661 c-0.084746 0.13559 -0.22034 0.18644 -0.37288 0.13559 c-0.44068 -0.22017 -1.1525 -0.54237 -1.9153 -0.54237 c-0.94915 0 -1.2034 0.47458 -1.2034 0.76271 c0 0.49153 0.71186 0.72881 1.5763 0.96593 c1.5086 0.40678 3.0171 1.1356 3.0171 2.6102 c0 1.4237 -1.3558 2.5083 -3.3898 2.5083 c-1.3898 0 -2.6441 -0.6778 -3.0678 -1.0168 c-0.11864 -0.067797 -0.15254 -0.23729 -0.084746 -0.32203 z M44.11849152542373 18.4746 c0.10169 0.15254 0.10136 0.27119 -0.01728 0.39 c-0.74576 0.71186 -1.7288 1.2541 -2.9153 1.2541 c-2.339 0 -4.339 -1.8812 -4.339 -4.288 c0 -2.4237 2 -4.339 4.339 -4.339 c1.1864 0 2.1525 0.49153 2.8475 1.1864 c0.11864 0.11881 0.11864 0.25441 0.016949 0.38983 l-0.64407 0.81356 c-0.10169 0.13559 -0.20339 0.15254 -0.40678 0.016949 c-0.42373 -0.42373 -1 -0.67797 -1.7627 -0.67797 c-1.61 0 -2.61 1.2542 -2.61 2.5932 c0 1.322 1 2.5932 2.6271 2.5932 c0.76271 0 1.3051 -0.28814 1.7966 -0.77966 c0.18644 -0.15254 0.30525 -0.10169 0.4239 0.033898 z M51.813406779661015 12.034099999999999 c0.18644 0.11864 0.23729 0.22017 0.11848 0.40661 l-0.69475 1.0169 c-0.084746 0.11864 -0.20339 0.15254 -0.35593 0.11864 c-0.35593 -0.16949 -0.66102 -0.32203 -1.2203 -0.32203 s-1.4407 0.23729 -1.9153 1.2881 l0 5.1866 c0 0.15238 -0.10169 0.27102 -0.25424 0.27102 l-1.339 0 c-0.15254 0 -0.25424 -0.11864 -0.25424 -0.27102 l0 -7.8476 c0 -0.15238 0.11864 -0.27119 0.25424 -0.27119 l0.9322 0 c0.40678 0 0.66102 0.42373 0.66102 0.72881 l0 0.11881 c0.59322 -0.54237 1.3051 -0.91525 2.2373 -0.91525 c0.86441 0 1.5085 0.27119 1.8305 0.49153 z M54.55913220338983 8.492 c-0.55915 0 -1.0168 -0.44068 -1.0168 -1.0169 c0 -0.55932 0.45763 -1.0169 1.0168 -1.0169 c0.55932 0 1.0169 0.45763 1.0169 1.0169 c0 0.57627 -0.45763 1.0169 -1.0169 1.0169 z M55.220132203389824 11.6102 l-1.3051 0 c-0.16949 0 -0.27119 0.11881 -0.27119 0.27119 l0 7.4407 c0 0.38983 0.23729 0.6778 0.64407 0.6778 l0.94915 0 c0.15254 0 0.25424 -0.10153 0.25424 -0.28797 l0 -7.8305 c0 -0.15238 -0.11864 -0.27119 -0.27119 -0.27119 z M62.11851186440678 11.5256 c1.9831 0 3.8814 1.6271 3.8814 4.1695 c0 2.4746 -1.5424 4.4064 -3.9322 4.4064 c-0.91525 0 -1.6949 -0.30475 -2.2881 -0.71153 l0 4.8303 c0 0.49153 -0.52542 0.76271 -0.89831 0.76271 l-0.67797 0 c-0.15254 0 -0.27119 -0.11864 -0.27119 -0.27119 l0 -11.644 c0 -0.52542 -0.084746 -0.79661 -0.13559 -1.1017 c-0.033732 -0.18644 0.017115 -0.35593 0.18661 -0.35593 l1.1525 0 c0.37288 0 0.62729 0.23729 0.64407 0.57627 c0.57627 -0.35593 1.3219 -0.66102 2.3388 -0.66102 z M61.77951186440677 18.3902 c1.3729 0 2.4068 -1.0169 2.4068 -2.6949 c0 -1.7288 -1.2712 -2.4576 -2.339 -2.4576 c-0.76271 0 -1.4576 0.27119 -2.0678 0.66102 l0 3.9322 c0.54237 0.30508 1.1864 0.55932 2 0.55932 z M69.69495762711864 6.441000000000001 l-1.3053 0 c-0.16933 0 -0.27119 0.11864 -0.27119 0.27119 l0 12.61 c0 0.38983 0.23746 0.6778 0.66119 0.6778 l0.91525 0 c0.16949 0 0.27119 -0.10153 0.27119 -0.28797 l0 -13 c0 -0.15254 -0.11864 -0.27119 -0.27119 -0.27119 z M80.1186 11.6102 c0.20339 0 0.30525 0.13543 0.20356 0.32203 l-3.3559 6.8983 c-1.678 3.4914 -3.1525 5.5083 -3.9492 6.288 c-0.15254 0.13559 -0.33898 0.067797 -0.50847 -0.10169 l-0.72881 -0.72881 c-0.18644 -0.16949 -0.15254 -0.33898 0.016949 -0.54237 c1.0339 -1.1695 2.3729 -3.1017 3.2373 -5.0507 l-3.5254 -6.7797 c-0.084746 -0.16949 0 -0.30508 0.18644 -0.30508 l1.4915 0 c0.15238 0 0.23712 0.067797 0.30492 0.18661 l2.4915 5.0846 l2.3729 -5.0678 c0.067797 -0.13559 0.16949 -0.20339 0.32203 -0.20339 l1.4407 0 z"></path></g></svg>